<?xml version="1.0" encoding="UTF-8" standalone="no"?>
<!DOCTYPE svg PUBLIC "-//W3C//DTD SVG 1.1//EN" "http://www.w3.org/Graphics/SVG/1.1/DTD/svg11.dtd">
<svg width="100%" height="100%" viewBox="0 0 100 100" version="1.1" xmlns="http://www.w3.org/2000/svg" xmlns:xlink="http://www.w3.org/1999/xlink" xml:space="preserve" xmlns:serif="http://www.serif.com/" style="fill-rule:evenodd;clip-rule:evenodd;stroke-linejoin:round;stroke-miterlimit:2;">
    <g id="Stack">
        <g>
            <g id="Stacks">
                <path id="Bottom" d="M14.662,54.317C14.662,55.611 15.163,56.845 16.044,57.768C16.211,57.943 16.391,58.106 16.584,58.257L46.922,81.959C48.731,83.373 51.269,83.373 53.078,81.959L83.416,58.257C83.609,58.106 83.789,57.943 83.956,57.768C84.837,56.845 85.338,55.611 85.338,54.317L85.338,61.215C85.338,61.216 85.338,61.218 85.338,61.219C85.338,62.758 84.629,64.211 83.416,65.159L53.078,88.861C51.269,90.275 48.731,90.275 46.922,88.861L16.584,65.159C15.371,64.211 14.662,62.758 14.662,61.219C14.662,61.218 14.662,61.216 14.662,61.215L14.662,54.317Z" style="fill:rgb(51,51,51);"/>
                <path id="Middle" d="M14.662,46.443C14.662,47.98 15.369,49.432 16.58,50.38C16.581,50.381 16.583,50.382 16.584,50.383L46.922,74.086C48.731,75.499 51.269,75.499 53.078,74.086L83.416,50.383C83.417,50.382 83.419,50.381 83.42,50.38C84.631,49.432 85.338,47.98 85.338,46.443L85.338,54.317C85.338,55.856 84.629,57.309 83.416,58.257L53.078,81.959C51.269,83.373 48.731,83.373 46.922,81.959L16.584,58.257C15.371,57.309 14.662,55.856 14.662,54.317L14.662,46.443Z" style="fill:rgb(0,166,136);"/>
                <path id="Top" d="M14.662,38.523C14.662,40.062 15.371,41.515 16.584,42.463L46.922,66.165C48.731,67.578 51.269,67.578 53.078,66.165L83.416,42.463C84.629,41.515 85.338,40.062 85.338,38.523L85.338,46.443C85.338,47.982 84.629,49.435 83.416,50.383L53.078,74.086C51.269,75.499 48.731,75.499 46.922,74.086L16.584,50.383C15.371,49.435 14.662,47.982 14.662,46.443L14.662,38.523Z" style="fill:rgb(159,166,165);"/>
            </g>
            <g id="Top1" serif:id="Top" transform="matrix(0.961479,-0.75119,0.990913,0.774186,-11.0067,-22.4841)">
                <path d="M11.119,53.866C11.119,52.051 9.806,50.778 7.936,50.778L-23.636,50.778C-24.898,50.778 -26.234,51.359 -27.258,52.353C-28.283,53.347 -28.881,54.643 -28.881,55.867L-28.881,86.483C-28.881,88.308 -27.561,89.59 -25.68,89.59L5.874,89.59C7.135,89.59 8.471,89.009 9.496,88.015C10.52,87.021 11.119,85.724 11.119,84.5L11.119,53.866Z" style="fill:rgb(201,210,209);"/>
            </g>
        </g>
        <g id="Glow-Effects" serif:id="Glow Effects">
            <path id="Light-effect-left" serif:id="Light effect left" d="M85.338,38.523L85.338,61.219C85.338,62.758 84.629,64.211 83.416,65.159L53.078,88.861C51.269,90.275 48.731,90.275 46.922,88.861L16.584,65.159C15.371,64.211 14.662,62.758 14.662,61.219L14.662,38.523C14.662,36.984 15.371,35.53 16.584,34.583L46.94,10.866C48.738,9.461 51.262,9.461 53.06,10.866L83.416,34.583C84.629,35.53 85.338,36.984 85.338,38.523Z" style="fill:url(#_Radial1);"/>
            <path id="Dark-effect-right" serif:id="Dark effect right" d="M85.338,38.523L85.338,61.219C85.338,62.758 84.629,64.211 83.416,65.159L53.078,88.861C51.269,90.275 48.731,90.275 46.922,88.861L16.584,65.159C15.371,64.211 14.662,62.758 14.662,61.219L14.662,38.523C14.662,36.984 15.371,35.53 16.584,34.583L46.94,10.866C48.738,9.461 51.262,9.461 53.06,10.866L83.416,34.583C84.629,35.53 85.338,36.984 85.338,38.523Z" style="fill:url(#_Radial2);"/>
        </g>
        <g id="Symbol" transform="matrix(0.248052,-0.1938,0.248052,0.1938,26.339,38.5205)">
            <path d="M6.958,27.942C19.08,39.917 35.706,46.802 53.43,46.728C66.98,46.655 79.834,42.371 90.454,34.644L88.22,29.993C78.333,37.463 66.211,41.638 53.43,41.711C36.365,41.858 20.435,34.863 9.192,22.852L6.958,27.942ZM2.307,54.309C26.88,75.147 61.743,79.028 89.978,64.6L89.978,58.85C62.292,74.341 27.283,70.422 3.406,48.596L2.307,54.309ZM25.342,86.719L31.311,88.257C28.601,81.665 27.1,74.744 26.843,67.566C24.5,43.03 34.607,19.409 53.064,3.882L47.717,1.941C29.407,18.42 19.592,42.627 21.863,67.749C22.046,74.194 23.218,80.566 25.342,86.719ZM56.543,91.589L61.267,89.612C52.625,77.197 47.827,62.402 47.827,46.912C47.827,32.007 52.185,17.871 60.169,5.896L55.335,4.102C47.241,16.773 42.81,31.531 42.81,46.912C42.81,63.098 47.681,78.516 56.543,91.589ZM84.558,73.901L87.781,70.019C72.07,61.084 62.073,44.605 61.67,26.038C61.487,19.226 62.659,12.524 65.076,6.335L60.278,4.944C57.715,11.609 56.506,18.75 56.653,26.111C57.056,46.033 67.786,63.977 84.558,73.901ZM26.953,46.252C30.835,46.252 33.984,43.066 33.984,39.148C33.984,35.303 30.835,32.117 26.953,32.117C23.035,32.117 19.849,35.303 19.849,39.148C19.849,43.066 23.035,46.252 26.953,46.252ZM63.135,50.354C66.87,50.354 69.946,47.278 69.946,43.469C69.946,39.697 66.87,36.621 63.135,36.621C59.326,36.621 56.213,39.697 56.213,43.469C56.213,47.278 59.326,50.354 63.135,50.354ZM49.329,77.6C53.21,77.6 56.36,74.487 56.36,70.569C56.36,66.65 53.21,63.538 49.329,63.538C45.41,63.538 42.297,66.65 42.297,70.569C42.297,74.487 45.41,77.6 49.329,77.6ZM47.681,95.398C73.792,95.398 95.398,73.792 95.398,47.717C95.398,21.606 73.755,0 47.644,0C21.57,0 0,21.606 0,47.717C0,73.792 21.606,95.398 47.681,95.398ZM47.681,89.832C24.646,89.832 5.566,70.752 5.566,47.717C5.566,24.646 24.609,5.566 47.644,5.566C70.715,5.566 89.832,24.646 89.832,47.717C89.832,70.752 70.752,89.832 47.681,89.832Z" style="fill:rgb(34,34,34);fill-opacity:0.85;fill-rule:nonzero;"/>
        </g>
    </g>
    <defs>
        <radialGradient id="_Radial1" cx="0" cy="0" r="1" gradientUnits="userSpaceOnUse" gradientTransform="matrix(35.3382,27.6086,-27.6086,35.3382,14.6622,63.6575)"><stop offset="0" style="stop-color:white;stop-opacity:0.3"/><stop offset="1" style="stop-color:white;stop-opacity:0"/></radialGradient>
        <radialGradient id="_Radial2" cx="0" cy="0" r="1" gradientUnits="userSpaceOnUse" gradientTransform="matrix(-27.6093,-35.3374,35.3374,-27.6093,85.3378,63.6575)"><stop offset="0" style="stop-color:black;stop-opacity:0.3"/><stop offset="1" style="stop-color:white;stop-opacity:0"/></radialGradient>
    </defs>
</svg>
